{
	"asset":{
		"generator":"Khronos glTF Blender I/O v3.5.30",
		"version":"2.0"
	},
	"scene":0,
	"scenes":[
		{
			"name":"Scene",
			"nodes":[
				0
			]
		}
	],
	"nodes":[
		{
			"mesh":0,
			"name":"Trailer.002"
		}
	],
	"meshes":[
		{
			"name":"Cube.005",
			"primitives":[
				{
					"attributes":{
						"POSITION":0,
						"TEXCOORD_0":1,
						"NORMAL":2
					},
					"indices":3
				}
			]
		}
	],
	"accessors":[
		{
			"bufferView":0,
			"componentType":5126,
			"count":3540,
			"max":[
				0.02862948179244995,
				2.801989793777466,
				0.6226391792297363
			],
			"min":[
				-1.9713704586029053,
				-1.1920928955078125e-07,
				-5.074605464935303
			],
			"type":"VEC3"
		},
		{
			"bufferView":1,
			"componentType":5126,
			"count":3540,
			"type":"VEC2"
		},
		{
			"bufferView":2,
			"componentType":5126,
			"count":3540,
			"type":"VEC3"
		},
		{
			"bufferView":3,
			"componentType":5123,
			"count":8316,
			"type":"SCALAR"
		}
	],
	"bufferViews":[
		{
			"buffer":0,
			"byteLength":42480,
			"byteOffset":0,
			"target":34962
		},
		{
			"buffer":0,
			"byteLength":28320,
			"byteOffset":42480,
			"target":34962
		},
		{
			"buffer":0,
			"byteLength":42480,
			"byteOffset":70800,
			"target":34962
		},
		{
			"buffer":0,
			"byteLength":16632,
			"byteOffset":113280,
			"target":34963
		}
	],
	"buffers":[
		{
			"byteLength":129912,
			"uri":"data:application/octet-stream;base64,"
		}
	]
}
