{
	"asset":{
		"generator":"Khronos glTF Blender I/O v3.5.30",
		"version":"2.0"
	},
	"scene":0,
	"scenes":[
		{
			"name":"Scene",
			"nodes":[
				11
			]
		}
	],
	"nodes":[
		{
			"name":"Bone",
			"translation":[
				0,
				0.48282456398010254,
				0
			]
		},
		{
			"name":"Bone.001",
			"rotation":[
				-0.7834320068359375,
				1.7980558978324396e-17,
				1.7980558978324396e-17,
				0.621477484703064
			],
			"translation":[
				0,
				0.7576625347137451,
				0
			]
		},
		{
			"name":"Bone.002",
			"rotation":[
				-0.7487345933914185,
				-0.290654718875885,
				-0.23056934773921967,
				0.5493215322494507
			],
			"scale":[
				0.9999999403953552,
				0.9999999403953552,
				1
			],
			"translation":[
				0,
				0.7576625347137451,
				0
			]
		},
		{
			"name":"Bone.003",
			"rotation":[
				-0.6477158069610596,
				-0.5138171315193176,
				-0.44071531295776367,
				0.34960877895355225
			],
			"scale":[
				0.9999999403953552,
				1,
				0.9999999403953552
			],
			"translation":[
				0,
				0.7576625347137451,
				0
			]
		},
		{
			"name":"Bone.004",
			"rotation":[
				-0.4893237054347992,
				-0.6176671385765076,
				-0.611823558807373,
				0.06871404498815536
			],
			"scale":[
				1.0000001192092896,
				1,
				1
			],
			"translation":[
				0,
				0.7576625347137451,
				0
			]
		},
		{
			"name":"Bone.005",
			"rotation":[
				0.2875887155532837,
				0.5780895352363586,
				0.7287377119064331,
				0.2281370311975479
			],
			"scale":[
				1,
				1.000000238418579,
				1.000003695487976
			],
			"translation":[
				0,
				0.7576625347137451,
				0
			]
		},
		{
			"name":"Bone.006",
			"rotation":[
				0.06037861853837967,
				0.4042757749557495,
				0.7811018824577332,
				0.4720120131969452
			],
			"scale":[
				1.0000001192092896,
				1.0000001192092896,
				1
			],
			"translation":[
				0,
				0.7576625347137451,
				0
			]
		},
		{
			"name":"Bone.007",
			"rotation":[
				-0.17217911779880524,
				0.13658563792705536,
				0.7642775177955627,
				0.6062825918197632
			],
			"scale":[
				1,
				1.0000001192092896,
				1
			],
			"translation":[
				0,
				0.7576625347137451,
				0
			]
		},
		{
			"name":"Bone.008",
			"rotation":[
				-0.38948529958724976,
				-0.1628209352493286,
				0.6797550320625305,
				0.599769651889801
			],
			"scale":[
				0.9999999403953552,
				0.9999998807907104,
				1
			],
			"translation":[
				0,
				0.7576625347137451,
				0
			]
		},
		{
			"name":"neutral_bone",
			"rotation":[
				-0.7071067690849304,
				0,
				0,
				0.7071067690849304
			]
		},
		{
			"mesh":0,
			"name":"Umbrella",
			"skin":0
		},
		{
			"children":[
				10,
				0,
				1,
				2,
				3,
				4,
				5,
				6,
				7,
				8,
				9
			],
			"name":"UmbrellaRigged",
			"translation":[
				0,
				0.2751338481903076,
				0
			]
		}
	],
	"animations":[
		{
			"channels":[
				{
					"sampler":0,
					"target":{
						"node":0,
						"path":"translation"
					}
				},
				{
					"sampler":1,
					"target":{
						"node":0,
						"path":"rotation"
					}
				},
				{
					"sampler":2,
					"target":{
						"node":0,
						"path":"scale"
					}
				},
				{
					"sampler":3,
					"target":{
						"node":1,
						"path":"translation"
					}
				},
				{
					"sampler":4,
					"target":{
						"node":1,
						"path":"rotation"
					}
				},
				{
					"sampler":5,
					"target":{
						"node":1,
						"path":"scale"
					}
				},
				{
					"sampler":6,
					"target":{
						"node":2,
						"path":"translation"
					}
				},
				{
					"sampler":7,
					"target":{
						"node":2,
						"path":"rotation"
					}
				},
				{
					"sampler":8,
					"target":{
						"node":2,
						"path":"scale"
					}
				},
				{
					"sampler":9,
					"target":{
						"node":3,
						"path":"translation"
					}
				},
				{
					"sampler":10,
					"target":{
						"node":3,
						"path":"rotation"
					}
				},
				{
					"sampler":11,
					"target":{
						"node":3,
						"path":"scale"
					}
				},
				{
					"sampler":12,
					"target":{
						"node":4,
						"path":"translation"
					}
				},
				{
					"sampler":13,
					"target":{
						"node":4,
						"path":"rotation"
					}
				},
				{
					"sampler":14,
					"target":{
						"node":4,
						"path":"scale"
					}
				},
				{
					"sampler":15,
					"target":{
						"node":5,
						"path":"translation"
					}
				},
				{
					"sampler":16,
					"target":{
						"node":5,
						"path":"rotation"
					}
				},
				{
					"sampler":17,
					"target":{
						"node":5,
						"path":"scale"
					}
				},
				{
					"sampler":18,
					"target":{
						"node":6,
						"path":"translation"
					}
				},
				{
					"sampler":19,
					"target":{
						"node":6,
						"path":"rotation"
					}
				},
				{
					"sampler":20,
					"target":{
						"node":6,
						"path":"scale"
					}
				},
				{
					"sampler":21,
					"target":{
						"node":7,
						"path":"translation"
					}
				},
				{
					"sampler":22,
					"target":{
						"node":7,
						"path":"rotation"
					}
				},
				{
					"sampler":23,
					"target":{
						"node":7,
						"path":"scale"
					}
				},
				{
					"sampler":24,
					"target":{
						"node":8,
						"path":"translation"
					}
				},
				{
					"sampler":25,
					"target":{
						"node":8,
						"path":"rotation"
					}
				},
				{
					"sampler":26,
					"target":{
						"node":8,
						"path":"scale"
					}
				}
			],
			"name":"CloseToOpen",
			"samplers":[
				{
					"input":9,
					"interpolation":"LINEAR",
					"output":10
				},
				{
					"input":9,
					"interpolation":"LINEAR",
					"output":11
				},
				{
					"input":9,
					"interpolation":"LINEAR",
					"output":12
				},
				{
					"input":9,
					"interpolation":"LINEAR",
					"output":13
				},
				{
					"input":9,
					"interpolation":"LINEAR",
					"output":14
				},
				{
					"input":9,
					"interpolation":"LINEAR",
					"output":15
				},
				{
					"input":9,
					"interpolation":"LINEAR",
					"output":16
				},
				{
					"input":9,
					"interpolation":"LINEAR",
					"output":17
				},
				{
					"input":9,
					"interpolation":"LINEAR",
					"output":18
				},
				{
					"input":9,
					"interpolation":"LINEAR",
					"output":19
				},
				{
					"input":9,
					"interpolation":"LINEAR",
					"output":20
				},
				{
					"input":9,
					"interpolation":"LINEAR",
					"output":21
				},
				{
					"input":9,
					"interpolation":"LINEAR",
					"output":22
				},
				{
					"input":9,
					"interpolation":"LINEAR",
					"output":23
				},
				{
					"input":9,
					"interpolation":"LINEAR",
					"output":24
				},
				{
					"input":9,
					"interpolation":"LINEAR",
					"output":25
				},
				{
					"input":9,
					"interpolation":"LINEAR",
					"output":26
				},
				{
					"input":9,
					"interpolation":"LINEAR",
					"output":27
				},
				{
					"input":9,
					"interpolation":"LINEAR",
					"output":28
				},
				{
					"input":9,
					"interpolation":"LINEAR",
					"output":29
				},
				{
					"input":9,
					"interpolation":"LINEAR",
					"output":30
				},
				{
					"input":9,
					"interpolation":"LINEAR",
					"output":31
				},
				{
					"input":9,
					"interpolation":"LINEAR",
					"output":32
				},
				{
					"input":9,
					"interpolation":"LINEAR",
					"output":33
				},
				{
					"input":9,
					"interpolation":"LINEAR",
					"output":34
				},
				{
					"input":9,
					"interpolation":"LINEAR",
					"output":35
				},
				{
					"input":9,
					"interpolation":"LINEAR",
					"output":36
				}
			]
		},
		{
			"channels":[
				{
					"sampler":0,
					"target":{
						"node":0,
						"path":"translation"
					}
				},
				{
					"sampler":1,
					"target":{
						"node":0,
						"path":"rotation"
					}
				},
				{
					"sampler":2,
					"target":{
						"node":0,
						"path":"scale"
					}
				},
				{
					"sampler":3,
					"target":{
						"node":1,
						"path":"translation"
					}
				},
				{
					"sampler":4,
					"target":{
						"node":1,
						"path":"rotation"
					}
				},
				{
					"sampler":5,
					"target":{
						"node":1,
						"path":"scale"
					}
				},
				{
					"sampler":6,
					"target":{
						"node":2,
						"path":"translation"
					}
				},
				{
					"sampler":7,
					"target":{
						"node":2,
						"path":"rotation"
					}
				},
				{
					"sampler":8,
					"target":{
						"node":2,
						"path":"scale"
					}
				},
				{
					"sampler":9,
					"target":{
						"node":3,
						"path":"translation"
					}
				},
				{
					"sampler":10,
					"target":{
						"node":3,
						"path":"rotation"
					}
				},
				{
					"sampler":11,
					"target":{
						"node":3,
						"path":"scale"
					}
				},
				{
					"sampler":12,
					"target":{
						"node":4,
						"path":"translation"
					}
				},
				{
					"sampler":13,
					"target":{
						"node":4,
						"path":"rotation"
					}
				},
				{
					"sampler":14,
					"target":{
						"node":4,
						"path":"scale"
					}
				},
				{
					"sampler":15,
					"target":{
						"node":5,
						"path":"translation"
					}
				},
				{
					"sampler":16,
					"target":{
						"node":5,
						"path":"rotation"
					}
				},
				{
					"sampler":17,
					"target":{
						"node":5,
						"path":"scale"
					}
				},
				{
					"sampler":18,
					"target":{
						"node":6,
						"path":"translation"
					}
				},
				{
					"sampler":19,
					"target":{
						"node":6,
						"path":"rotation"
					}
				},
				{
					"sampler":20,
					"target":{
						"node":6,
						"path":"scale"
					}
				},
				{
					"sampler":21,
					"target":{
						"node":7,
						"path":"translation"
					}
				},
				{
					"sampler":22,
					"target":{
						"node":7,
						"path":"rotation"
					}
				},
				{
					"sampler":23,
					"target":{
						"node":7,
						"path":"scale"
					}
				},
				{
					"sampler":24,
					"target":{
						"node":8,
						"path":"translation"
					}
				},
				{
					"sampler":25,
					"target":{
						"node":8,
						"path":"rotation"
					}
				},
				{
					"sampler":26,
					"target":{
						"node":8,
						"path":"scale"
					}
				}
			],
			"name":"OpenToClose",
			"samplers":[
				{
					"input":9,
					"interpolation":"LINEAR",
					"output":37
				},
				{
					"input":9,
					"interpolation":"LINEAR",
					"output":38
				},
				{
					"input":9,
					"interpolation":"LINEAR",
					"output":39
				},
				{
					"input":9,
					"interpolation":"LINEAR",
					"output":40
				},
				{
					"input":9,
					"interpolation":"LINEAR",
					"output":41
				},
				{
					"input":9,
					"interpolation":"LINEAR",
					"output":42
				},
				{
					"input":9,
					"interpolation":"LINEAR",
					"output":43
				},
				{
					"input":9,
					"interpolation":"LINEAR",
					"output":44
				},
				{
					"input":9,
					"interpolation":"LINEAR",
					"output":45
				},
				{
					"input":9,
					"interpolation":"LINEAR",
					"output":46
				},
				{
					"input":9,
					"interpolation":"LINEAR",
					"output":47
				},
				{
					"input":9,
					"interpolation":"LINEAR",
					"output":48
				},
				{
					"input":9,
					"interpolation":"LINEAR",
					"output":49
				},
				{
					"input":9,
					"interpolation":"LINEAR",
					"output":50
				},
				{
					"input":9,
					"interpolation":"LINEAR",
					"output":51
				},
				{
					"input":9,
					"interpolation":"LINEAR",
					"output":52
				},
				{
					"input":9,
					"interpolation":"LINEAR",
					"output":53
				},
				{
					"input":9,
					"interpolation":"LINEAR",
					"output":54
				},
				{
					"input":9,
					"interpolation":"LINEAR",
					"output":55
				},
				{
					"input":9,
					"interpolation":"LINEAR",
					"output":56
				},
				{
					"input":9,
					"interpolation":"LINEAR",
					"output":57
				},
				{
					"input":9,
					"interpolation":"LINEAR",
					"output":58
				},
				{
					"input":9,
					"interpolation":"LINEAR",
					"output":59
				},
				{
					"input":9,
					"interpolation":"LINEAR",
					"output":60
				},
				{
					"input":9,
					"interpolation":"LINEAR",
					"output":61
				},
				{
					"input":9,
					"interpolation":"LINEAR",
					"output":62
				},
				{
					"input":9,
					"interpolation":"LINEAR",
					"output":63
				}
			]
		}
	],
	"materials":[
		{
			"doubleSided":true,
			"name":"Umbrella",
			"pbrMetallicRoughness":{}
		}
	],
	"meshes":[
		{
			"extras":{
				"targetNames":[
					"Closed"
				]
			},
			"name":"Cylinder.001",
			"primitives":[
				{
					"attributes":{
						"POSITION":0,
						"TEXCOORD_0":1,
						"NORMAL":2,
						"JOINTS_0":3,
						"WEIGHTS_0":4
					},
					"indices":5,
					"material":0,
					"targets":[
						{
							"POSITION":6,
							"NORMAL":7
						}
					]
				}
			],
			"weights":[
				0
			]
		}
	],
	"skins":[
		{
			"inverseBindMatrices":8,
			"joints":[
				0,
				1,
				2,
				3,
				4,
				5,
				6,
				7,
				8,
				9
			],
			"name":"UmbrellaRigged"
		}
	],
	"accessors":[
		{
			"bufferView":0,
			"componentType":5126,
			"count":815,
			"max":[
				0.6299111247062683,
				1.1354548931121826,
				0.6299111247062683
			],
			"min":[
				-0.6299111247062683,
				0.04817373678088188,
				-0.6299111247062683
			],
			"type":"VEC3"
		},
		{
			"bufferView":1,
			"componentType":5126,
			"count":815,
			"type":"VEC2"
		},
		{
			"bufferView":2,
			"componentType":5126,
			"count":815,
			"type":"VEC3"
		},
		{
			"bufferView":3,
			"componentType":5121,
			"count":815,
			"type":"VEC4"
		},
		{
			"bufferView":4,
			"componentType":5126,
			"count":815,
			"type":"VEC4"
		},
		{
			"bufferView":5,
			"componentType":5123,
			"count":2562,
			"type":"SCALAR"
		},
		{
			"bufferView":6,
			"componentType":5126,
			"count":815,
			"max":[
				0,
				1.1920928955078125e-07,
				0.0035543295089155436
			],
			"min":[
				-0.0014722521882504225,
				0,
				-1.4901161193847656e-08
			],
			"type":"VEC3"
		},
		{
			"bufferView":7,
			"componentType":5126,
			"count":815,
			"type":"VEC3"
		},
		{
			"bufferView":8,
			"componentType":5126,
			"count":10,
			"type":"MAT4"
		},
		{
			"bufferView":9,
			"componentType":5126,
			"count":30,
			"max":[
				0.5
			],
			"min":[
				0.016666666666666666
			],
			"type":"SCALAR"
		},
		{
			"bufferView":10,
			"componentType":5126,
			"count":30,
			"type":"VEC3"
		},
		{
			"bufferView":11,
			"componentType":5126,
			"count":30,
			"type":"VEC4"
		},
		{
			"bufferView":12,
			"componentType":5126,
			"count":30,
			"type":"VEC3"
		},
		{
			"bufferView":13,
			"componentType":5126,
			"count":30,
			"type":"VEC3"
		},
		{
			"bufferView":14,
			"componentType":5126,
			"count":30,
			"type":"VEC4"
		},
		{
			"bufferView":15,
			"componentType":5126,
			"count":30,
			"type":"VEC3"
		},
		{
			"bufferView":16,
			"componentType":5126,
			"count":30,
			"type":"VEC3"
		},
		{
			"bufferView":17,
			"componentType":5126,
			"count":30,
			"type":"VEC4"
		},
		{
			"bufferView":18,
			"componentType":5126,
			"count":30,
			"type":"VEC3"
		},
		{
			"bufferView":19,
			"componentType":5126,
			"count":30,
			"type":"VEC3"
		},
		{
			"bufferView":20,
			"componentType":5126,
			"count":30,
			"type":"VEC4"
		},
		{
			"bufferView":21,
			"componentType":5126,
			"count":30,
			"type":"VEC3"
		},
		{
			"bufferView":22,
			"componentType":5126,
			"count":30,
			"type":"VEC3"
		},
		{
			"bufferView":23,
			"componentType":5126,
			"count":30,
			"type":"VEC4"
		},
		{
			"bufferView":24,
			"componentType":5126,
			"count":30,
			"type":"VEC3"
		},
		{
			"bufferView":25,
			"componentType":5126,
			"count":30,
			"type":"VEC3"
		},
		{
			"bufferView":26,
			"componentType":5126,
			"count":30,
			"type":"VEC4"
		},
		{
			"bufferView":27,
			"componentType":5126,
			"count":30,
			"type":"VEC3"
		},
		{
			"bufferView":28,
			"componentType":5126,
			"count":30,
			"type":"VEC3"
		},
		{
			"bufferView":29,
			"componentType":5126,
			"count":30,
			"type":"VEC4"
		},
		{
			"bufferView":30,
			"componentType":5126,
			"count":30,
			"type":"VEC3"
		},
		{
			"bufferView":31,
			"componentType":5126,
			"count":30,
			"type":"VEC3"
		},
		{
			"bufferView":32,
			"componentType":5126,
			"count":30,
			"type":"VEC4"
		},
		{
			"bufferView":33,
			"componentType":5126,
			"count":30,
			"type":"VEC3"
		},
		{
			"bufferView":34,
			"componentType":5126,
			"count":30,
			"type":"VEC3"
		},
		{
			"bufferView":35,
			"componentType":5126,
			"count":30,
			"type":"VEC4"
		},
		{
			"bufferView":36,
			"componentType":5126,
			"count":30,
			"type":"VEC3"
		},
		{
			"bufferView":37,
			"componentType":5126,
			"count":30,
			"type":"VEC3"
		},
		{
			"bufferView":38,
			"componentType":5126,
			"count":30,
			"type":"VEC4"
		},
		{
			"bufferView":39,
			"componentType":5126,
			"count":30,
			"type":"VEC3"
		},
		{
			"bufferView":40,
			"componentType":5126,
			"count":30,
			"type":"VEC3"
		},
		{
			"bufferView":41,
			"componentType":5126,
			"count":30,
			"type":"VEC4"
		},
		{
			"bufferView":42,
			"componentType":5126,
			"count":30,
			"type":"VEC3"
		},
		{
			"bufferView":43,
			"componentType":5126,
			"count":30,
			"type":"VEC3"
		},
		{
			"bufferView":44,
			"componentType":5126,
			"count":30,
			"type":"VEC4"
		},
		{
			"bufferView":45,
			"componentType":5126,
			"count":30,
			"type":"VEC3"
		},
		{
			"bufferView":46,
			"componentType":5126,
			"count":30,
			"type":"VEC3"
		},
		{
			"bufferView":47,
			"componentType":5126,
			"count":30,
			"type":"VEC4"
		},
		{
			"bufferView":48,
			"componentType":5126,
			"count":30,
			"type":"VEC3"
		},
		{
			"bufferView":49,
			"componentType":5126,
			"count":30,
			"type":"VEC3"
		},
		{
			"bufferView":50,
			"componentType":5126,
			"count":30,
			"type":"VEC4"
		},
		{
			"bufferView":51,
			"componentType":5126,
			"count":30,
			"type":"VEC3"
		},
		{
			"bufferView":52,
			"componentType":5126,
			"count":30,
			"type":"VEC3"
		},
		{
			"bufferView":53,
			"componentType":5126,
			"count":30,
			"type":"VEC4"
		},
		{
			"bufferView":54,
			"componentType":5126,
			"count":30,
			"type":"VEC3"
		},
		{
			"bufferView":55,
			"componentType":5126,
			"count":30,
			"type":"VEC3"
		},
		{
			"bufferView":56,
			"componentType":5126,
			"count":30,
			"type":"VEC4"
		},
		{
			"bufferView":57,
			"componentType":5126,
			"count":30,
			"type":"VEC3"
		},
		{
			"bufferView":58,
			"componentType":5126,
			"count":30,
			"type":"VEC3"
		},
		{
			"bufferView":59,
			"componentType":5126,
			"count":30,
			"type":"VEC4"
		},
		{
			"bufferView":60,
			"componentType":5126,
			"count":30,
			"type":"VEC3"
		},
		{
			"bufferView":61,
			"componentType":5126,
			"count":30,
			"type":"VEC3"
		},
		{
			"bufferView":62,
			"componentType":5126,
			"count":30,
			"type":"VEC4"
		},
		{
			"bufferView":63,
			"componentType":5126,
			"count":30,
			"type":"VEC3"
		}
	],
	"bufferViews":[
		{
			"buffer":0,
			"byteLength":9780,
			"byteOffset":0,
			"target":34962
		},
		{
			"buffer":0,
			"byteLength":6520,
			"byteOffset":9780,
			"target":34962
		},
		{
			"buffer":0,
			"byteLength":9780,
			"byteOffset":16300,
			"target":34962
		},
		{
			"buffer":0,
			"byteLength":3260,
			"byteOffset":26080,
			"target":34962
		},
		{
			"buffer":0,
			"byteLength":13040,
			"byteOffset":29340,
			"target":34962
		},
		{
			"buffer":0,
			"byteLength":5124,
			"byteOffset":42380,
			"target":34963
		},
		{
			"buffer":0,
			"byteLength":9780,
			"byteOffset":47504,
			"target":34962
		},
		{
			"buffer":0,
			"byteLength":9780,
			"byteOffset":57284,
			"target":34962
		},
		{
			"buffer":0,
			"byteLength":640,
			"byteOffset":67064
		},
		{
			"buffer":0,
			"byteLength":120,
			"byteOffset":67704
		},
		{
			"buffer":0,
			"byteLength":360,
			"byteOffset":67824
		},
		{
			"buffer":0,
			"byteLength":480,
			"byteOffset":68184
		},
		{
			"buffer":0,
			"byteLength":360,
			"byteOffset":68664
		},
		{
			"buffer":0,
			"byteLength":360,
			"byteOffset":69024
		},
		{
			"buffer":0,
			"byteLength":480,
			"byteOffset":69384
		},
		{
			"buffer":0,
			"byteLength":360,
			"byteOffset":69864
		},
		{
			"buffer":0,
			"byteLength":360,
			"byteOffset":70224
		},
		{
			"buffer":0,
			"byteLength":480,
			"byteOffset":70584
		},
		{
			"buffer":0,
			"byteLength":360,
			"byteOffset":71064
		},
		{
			"buffer":0,
			"byteLength":360,
			"byteOffset":71424
		},
		{
			"buffer":0,
			"byteLength":480,
			"byteOffset":71784
		},
		{
			"buffer":0,
			"byteLength":360,
			"byteOffset":72264
		},
		{
			"buffer":0,
			"byteLength":360,
			"byteOffset":72624
		},
		{
			"buffer":0,
			"byteLength":480,
			"byteOffset":72984
		},
		{
			"buffer":0,
			"byteLength":360,
			"byteOffset":73464
		},
		{
			"buffer":0,
			"byteLength":360,
			"byteOffset":73824
		},
		{
			"buffer":0,
			"byteLength":480,
			"byteOffset":74184
		},
		{
			"buffer":0,
			"byteLength":360,
			"byteOffset":74664
		},
		{
			"buffer":0,
			"byteLength":360,
			"byteOffset":75024
		},
		{
			"buffer":0,
			"byteLength":480,
			"byteOffset":75384
		},
		{
			"buffer":0,
			"byteLength":360,
			"byteOffset":75864
		},
		{
			"buffer":0,
			"byteLength":360,
			"byteOffset":76224
		},
		{
			"buffer":0,
			"byteLength":480,
			"byteOffset":76584
		},
		{
			"buffer":0,
			"byteLength":360,
			"byteOffset":77064
		},
		{
			"buffer":0,
			"byteLength":360,
			"byteOffset":77424
		},
		{
			"buffer":0,
			"byteLength":480,
			"byteOffset":77784
		},
		{
			"buffer":0,
			"byteLength":360,
			"byteOffset":78264
		},
		{
			"buffer":0,
			"byteLength":360,
			"byteOffset":78624
		},
		{
			"buffer":0,
			"byteLength":480,
			"byteOffset":78984
		},
		{
			"buffer":0,
			"byteLength":360,
			"byteOffset":79464
		},
		{
			"buffer":0,
			"byteLength":360,
			"byteOffset":79824
		},
		{
			"buffer":0,
			"byteLength":480,
			"byteOffset":80184
		},
		{
			"buffer":0,
			"byteLength":360,
			"byteOffset":80664
		},
		{
			"buffer":0,
			"byteLength":360,
			"byteOffset":81024
		},
		{
			"buffer":0,
			"byteLength":480,
			"byteOffset":81384
		},
		{
			"buffer":0,
			"byteLength":360,
			"byteOffset":81864
		},
		{
			"buffer":0,
			"byteLength":360,
			"byteOffset":82224
		},
		{
			"buffer":0,
			"byteLength":480,
			"byteOffset":82584
		},
		{
			"buffer":0,
			"byteLength":360,
			"byteOffset":83064
		},
		{
			"buffer":0,
			"byteLength":360,
			"byteOffset":83424
		},
		{
			"buffer":0,
			"byteLength":480,
			"byteOffset":83784
		},
		{
			"buffer":0,
			"byteLength":360,
			"byteOffset":84264
		},
		{
			"buffer":0,
			"byteLength":360,
			"byteOffset":84624
		},
		{
			"buffer":0,
			"byteLength":480,
			"byteOffset":84984
		},
		{
			"buffer":0,
			"byteLength":360,
			"byteOffset":85464
		},
		{
			"buffer":0,
			"byteLength":360,
			"byteOffset":85824
		},
		{
			"buffer":0,
			"byteLength":480,
			"byteOffset":86184
		},
		{
			"buffer":0,
			"byteLength":360,
			"byteOffset":86664
		},
		{
			"buffer":0,
			"byteLength":360,
			"byteOffset":87024
		},
		{
			"buffer":0,
			"byteLength":480,
			"byteOffset":87384
		},
		{
			"buffer":0,
			"byteLength":360,
			"byteOffset":87864
		},
		{
			"buffer":0,
			"byteLength":360,
			"byteOffset":88224
		},
		{
			"buffer":0,
			"byteLength":480,
			"byteOffset":88584
		},
		{
			"buffer":0,
			"byteLength":360,
			"byteOffset":89064
		}
	],
	"buffers":[
		{
			"byteLength":89424,
			"uri":"data:application/octet-stream;base64,"
		}
	]
}
