{
	"asset":{
		"generator":"Khronos glTF Blender I/O v3.5.30",
		"version":"2.0"
	},
	"scene":0,
	"scenes":[
		{
			"name":"Scene",
			"nodes":[
				0
			]
		}
	],
	"nodes":[
		{
			"mesh":0,
			"name":"Grass09"
		}
	],
	"meshes":[
		{
			"name":"Vert.014",
			"primitives":[
				{
					"attributes":{
						"POSITION":0,
						"TEXCOORD_0":1,
						"NORMAL":2
					},
					"indices":3
				}
			]
		}
	],
	"accessors":[
		{
			"bufferView":0,
			"componentType":5126,
			"count":76,
			"max":[
				0.48387348651885986,
				0.6195489168167114,
				8.324187206198985e-08
			],
			"min":[
				-0.4329953193664551,
				-0.010069668292999268,
				-1.3529515285881644e-09
			],
			"type":"VEC3"
		},
		{
			"bufferView":1,
			"componentType":5126,
			"count":76,
			"type":"VEC2"
		},
		{
			"bufferView":2,
			"componentType":5126,
			"count":76,
			"type":"VEC3"
		},
		{
			"bufferView":3,
			"componentType":5123,
			"count":285,
			"type":"SCALAR"
		}
	],
	"bufferViews":[
		{
			"buffer":0,
			"byteLength":912,
			"byteOffset":0,
			"target":34962
		},
		{
			"buffer":0,
			"byteLength":608,
			"byteOffset":912,
			"target":34962
		},
		{
			"buffer":0,
			"byteLength":912,
			"byteOffset":1520,
			"target":34962
		},
		{
			"buffer":0,
			"byteLength":570,
			"byteOffset":2432,
			"target":34963
		}
	],
	"buffers":[
		{
			"byteLength":3004,
			"uri":"data:application/octet-stream;base64,"
		}
	]
}
