{
	"asset":{
		"generator":"Khronos glTF Blender I/O v3.5.30",
		"version":"2.0"
	},
	"scene":0,
	"scenes":[
		{
			"name":"Scene",
			"nodes":[
				0
			]
		}
	],
	"nodes":[
		{
			"mesh":0,
			"name":"Grass07"
		}
	],
	"meshes":[
		{
			"name":"Vert",
			"primitives":[
				{
					"attributes":{
						"POSITION":0,
						"TEXCOORD_0":1,
						"NORMAL":2
					},
					"indices":3
				}
			]
		}
	],
	"accessors":[
		{
			"bufferView":0,
			"componentType":5126,
			"count":57,
			"max":[
				0.38319748640060425,
				0.9008079767227173,
				1.2103149060749274e-07
			],
			"min":[
				-0.19466421008110046,
				-0.0008925795555114746,
				-1.199209620494912e-10
			],
			"type":"VEC3"
		},
		{
			"bufferView":1,
			"componentType":5126,
			"count":57,
			"type":"VEC2"
		},
		{
			"bufferView":2,
			"componentType":5126,
			"count":57,
			"type":"VEC3"
		},
		{
			"bufferView":3,
			"componentType":5123,
			"count":219,
			"type":"SCALAR"
		}
	],
	"bufferViews":[
		{
			"buffer":0,
			"byteLength":684,
			"byteOffset":0,
			"target":34962
		},
		{
			"buffer":0,
			"byteLength":456,
			"byteOffset":684,
			"target":34962
		},
		{
			"buffer":0,
			"byteLength":684,
			"byteOffset":1140,
			"target":34962
		},
		{
			"buffer":0,
			"byteLength":438,
			"byteOffset":1824,
			"target":34963
		}
	],
	"buffers":[
		{
			"byteLength":2264,
			"uri":"data:application/octet-stream;base64,"
		}
	]
}
