{
	"asset":{
		"generator":"Khronos glTF Blender I/O v3.5.30",
		"version":"2.0"
	},
	"scene":0,
	"scenes":[
		{
			"name":"Scene",
			"nodes":[
				0
			]
		}
	],
	"nodes":[
		{
			"mesh":0,
			"name":"GrassClump03",
			"rotation":[
				0,
				-0.23681041598320007,
				0,
				0.9715558886528015
			]
		}
	],
	"meshes":[
		{
			"name":"Vert.009",
			"primitives":[
				{
					"attributes":{
						"POSITION":0,
						"TEXCOORD_0":1,
						"NORMAL":2
					},
					"indices":3
				}
			]
		}
	],
	"accessors":[
		{
			"bufferView":0,
			"componentType":5126,
			"count":397,
			"max":[
				0.7836199402809143,
				1.19369375705719,
				0.8426923751831055
			],
			"min":[
				-0.24920973181724548,
				-0.001783132553100586,
				-0.24375426769256592
			],
			"type":"VEC3"
		},
		{
			"bufferView":1,
			"componentType":5126,
			"count":397,
			"type":"VEC2"
		},
		{
			"bufferView":2,
			"componentType":5126,
			"count":397,
			"type":"VEC3"
		},
		{
			"bufferView":3,
			"componentType":5123,
			"count":759,
			"type":"SCALAR"
		}
	],
	"bufferViews":[
		{
			"buffer":0,
			"byteLength":4764,
			"byteOffset":0,
			"target":34962
		},
		{
			"buffer":0,
			"byteLength":3176,
			"byteOffset":4764,
			"target":34962
		},
		{
			"buffer":0,
			"byteLength":4764,
			"byteOffset":7940,
			"target":34962
		},
		{
			"buffer":0,
			"byteLength":1518,
			"byteOffset":12704,
			"target":34963
		}
	],
	"buffers":[
		{
			"byteLength":14224,
			"uri":"data:application/octet-stream;base64,"
		}
	]
}
