{
	"asset":{
		"generator":"Khronos glTF Blender I/O v3.5.30",
		"version":"2.0"
	},
	"scene":0,
	"scenes":[
		{
			"name":"Scene",
			"nodes":[
				0
			]
		}
	],
	"nodes":[
		{
			"mesh":0,
			"name":"Grass05"
		}
	],
	"meshes":[
		{
			"name":"Vert.011",
			"primitives":[
				{
					"attributes":{
						"POSITION":0,
						"TEXCOORD_0":1,
						"NORMAL":2
					},
					"indices":3
				}
			]
		}
	],
	"accessors":[
		{
			"bufferView":0,
			"componentType":5126,
			"count":73,
			"max":[
				0.5036942958831787,
				0.9476063847541809,
				1.2731925380649045e-07
			],
			"min":[
				-0.31417298316955566,
				0,
				0
			],
			"type":"VEC3"
		},
		{
			"bufferView":1,
			"componentType":5126,
			"count":73,
			"type":"VEC2"
		},
		{
			"bufferView":2,
			"componentType":5126,
			"count":73,
			"type":"VEC3"
		},
		{
			"bufferView":3,
			"componentType":5123,
			"count":276,
			"type":"SCALAR"
		}
	],
	"bufferViews":[
		{
			"buffer":0,
			"byteLength":876,
			"byteOffset":0,
			"target":34962
		},
		{
			"buffer":0,
			"byteLength":584,
			"byteOffset":876,
			"target":34962
		},
		{
			"buffer":0,
			"byteLength":876,
			"byteOffset":1460,
			"target":34962
		},
		{
			"buffer":0,
			"byteLength":552,
			"byteOffset":2336,
			"target":34963
		}
	],
	"buffers":[
		{
			"byteLength":2888,
			"uri":"data:application/octet-stream;base64,"
		}
	]
}
