{
	"asset":{
		"generator":"Khronos glTF Blender I/O v3.5.30",
		"version":"2.0"
	},
	"scene":0,
	"scenes":[
		{
			"name":"Scene",
			"nodes":[
				0
			]
		}
	],
	"nodes":[
		{
			"mesh":0,
			"name":"GrassClump01",
			"rotation":[
				0,
				-0.2673630714416504,
				0,
				0.9635958671569824
			]
		}
	],
	"meshes":[
		{
			"name":"Vert.003",
			"primitives":[
				{
					"attributes":{
						"POSITION":0,
						"TEXCOORD_0":1,
						"NORMAL":2
					},
					"indices":3
				}
			]
		}
	],
	"accessors":[
		{
			"bufferView":0,
			"componentType":5126,
			"count":435,
			"max":[
				0.7369176149368286,
				1.3249963521957397,
				0.3926032781600952
			],
			"min":[
				-0.4927988052368164,
				-0.01908320188522339,
				-0.2794330418109894
			],
			"type":"VEC3"
		},
		{
			"bufferView":1,
			"componentType":5126,
			"count":435,
			"type":"VEC2"
		},
		{
			"bufferView":2,
			"componentType":5126,
			"count":435,
			"type":"VEC3"
		},
		{
			"bufferView":3,
			"componentType":5123,
			"count":669,
			"type":"SCALAR"
		}
	],
	"bufferViews":[
		{
			"buffer":0,
			"byteLength":5220,
			"byteOffset":0,
			"target":34962
		},
		{
			"buffer":0,
			"byteLength":3480,
			"byteOffset":5220,
			"target":34962
		},
		{
			"buffer":0,
			"byteLength":5220,
			"byteOffset":8700,
			"target":34962
		},
		{
			"buffer":0,
			"byteLength":1338,
			"byteOffset":13920,
			"target":34963
		}
	],
	"buffers":[
		{
			"byteLength":15260,
			"uri":"data:application/octet-stream;base64,"
		}
	]
}
