{
	"asset":{
		"generator":"Khronos glTF Blender I/O v3.5.30",
		"version":"2.0"
	},
	"scene":0,
	"scenes":[
		{
			"name":"Scene",
			"nodes":[
				0
			]
		}
	],
	"nodes":[
		{
			"mesh":0,
			"name":"Grass04"
		}
	],
	"meshes":[
		{
			"name":"Vert.010",
			"primitives":[
				{
					"attributes":{
						"POSITION":0,
						"TEXCOORD_0":1,
						"NORMAL":2
					},
					"indices":3
				}
			]
		}
	],
	"accessors":[
		{
			"bufferView":0,
			"componentType":5126,
			"count":59,
			"max":[
				0.27449584007263184,
				1.2025506496429443,
				1.615733253856888e-07
			],
			"min":[
				-0.25909125804901123,
				-0.00027060508728027344,
				-3.6351366361486726e-11
			],
			"type":"VEC3"
		},
		{
			"bufferView":1,
			"componentType":5126,
			"count":59,
			"type":"VEC2"
		},
		{
			"bufferView":2,
			"componentType":5126,
			"count":59,
			"type":"VEC3"
		},
		{
			"bufferView":3,
			"componentType":5123,
			"count":222,
			"type":"SCALAR"
		}
	],
	"bufferViews":[
		{
			"buffer":0,
			"byteLength":708,
			"byteOffset":0,
			"target":34962
		},
		{
			"buffer":0,
			"byteLength":472,
			"byteOffset":708,
			"target":34962
		},
		{
			"buffer":0,
			"byteLength":708,
			"byteOffset":1180,
			"target":34962
		},
		{
			"buffer":0,
			"byteLength":444,
			"byteOffset":1888,
			"target":34963
		}
	],
	"buffers":[
		{
			"byteLength":2332,
			"uri":"data:application/octet-stream;base64,"
		}
	]
}
