{
	"asset":{
		"generator":"Khronos glTF Blender I/O v3.5.30",
		"version":"2.0"
	},
	"scene":0,
	"scenes":[
		{
			"name":"Scene",
			"nodes":[
				0
			]
		}
	],
	"nodes":[
		{
			"mesh":0,
			"name":"GrassClump02",
			"rotation":[
				0,
				0.19860245287418365,
				0,
				0.9800801277160645
			]
		}
	],
	"meshes":[
		{
			"name":"Vert.005",
			"primitives":[
				{
					"attributes":{
						"POSITION":0,
						"TEXCOORD_0":1,
						"NORMAL":2
					},
					"indices":3
				}
			]
		}
	],
	"accessors":[
		{
			"bufferView":0,
			"componentType":5126,
			"count":563,
			"max":[
				0.39605528116226196,
				1.0692758560180664,
				0.6906732320785522
			],
			"min":[
				-0.8308924436569214,
				-0.025242581963539124,
				-0.08869972825050354
			],
			"type":"VEC3"
		},
		{
			"bufferView":1,
			"componentType":5126,
			"count":563,
			"type":"VEC2"
		},
		{
			"bufferView":2,
			"componentType":5126,
			"count":563,
			"type":"VEC3"
		},
		{
			"bufferView":3,
			"componentType":5123,
			"count":825,
			"type":"SCALAR"
		}
	],
	"bufferViews":[
		{
			"buffer":0,
			"byteLength":6756,
			"byteOffset":0,
			"target":34962
		},
		{
			"buffer":0,
			"byteLength":4504,
			"byteOffset":6756,
			"target":34962
		},
		{
			"buffer":0,
			"byteLength":6756,
			"byteOffset":11260,
			"target":34962
		},
		{
			"buffer":0,
			"byteLength":1650,
			"byteOffset":18016,
			"target":34963
		}
	],
	"buffers":[
		{
			"byteLength":19668,
			"uri":"data:application/octet-stream;base64,"
		}
	]
}
