{
	"asset":{
		"generator":"Khronos glTF Blender I/O v3.5.30",
		"version":"2.0"
	},
	"scene":0,
	"scenes":[
		{
			"name":"Scene",
			"nodes":[
				0
			]
		}
	],
	"nodes":[
		{
			"mesh":0,
			"name":"Grass06"
		}
	],
	"meshes":[
		{
			"name":"Vert.012",
			"primitives":[
				{
					"attributes":{
						"POSITION":0,
						"TEXCOORD_0":1,
						"NORMAL":2
					},
					"indices":3
				}
			]
		}
	],
	"accessors":[
		{
			"bufferView":0,
			"componentType":5126,
			"count":47,
			"max":[
				0.2324979305267334,
				0.8288804888725281,
				1.1136740596384698e-07
			],
			"min":[
				-0.2900046110153198,
				-0.021471261978149414,
				-2.8848390343227948e-09
			],
			"type":"VEC3"
		},
		{
			"bufferView":1,
			"componentType":5126,
			"count":47,
			"type":"VEC2"
		},
		{
			"bufferView":2,
			"componentType":5126,
			"count":47,
			"type":"VEC3"
		},
		{
			"bufferView":3,
			"componentType":5123,
			"count":177,
			"type":"SCALAR"
		}
	],
	"bufferViews":[
		{
			"buffer":0,
			"byteLength":564,
			"byteOffset":0,
			"target":34962
		},
		{
			"buffer":0,
			"byteLength":376,
			"byteOffset":564,
			"target":34962
		},
		{
			"buffer":0,
			"byteLength":564,
			"byteOffset":940,
			"target":34962
		},
		{
			"buffer":0,
			"byteLength":354,
			"byteOffset":1504,
			"target":34963
		}
	],
	"buffers":[
		{
			"byteLength":1860,
			"uri":"data:application/octet-stream;base64,"
		}
	]
}
